<svg width="51" height="40" viewBox="0 0 51 40" fill="none" xmlns="http://www.w3.org/2000/svg">
<path d="M46.5113 0.957031H5.26015C2.83767 0.957031 0.861328 2.9293 0.861328 5.35156V34.6484C0.861328 37.0625 2.82887 39.043 5.26015 39.043H46.5113C48.9278 39.043 50.9102 37.0773 50.9102 34.6484V5.35156C50.9102 2.9375 48.9426 0.957031 46.5113 0.957031ZM45.9039 3.88672L25.979 23.7923L5.88175 3.88672H45.9039ZM3.79388 34.0418V5.94424L17.9169 19.9325L3.79388 34.0418ZM5.86748 36.1133L19.9994 21.9951L24.9512 26.8996C25.5245 27.4674 26.4495 27.4655 27.0203 26.8951L31.8486 22.0716L45.904 36.1133H5.86748ZM47.9776 34.0417L33.9222 20L47.9776 5.9582V34.0417Z" fill="#137547"/>
</svg>
