<svg width="51" height="50" viewBox="0 0 51 50" fill="none" xmlns="http://www.w3.org/2000/svg">
<g clip-path="url(#clip0)">
<path d="M29.8234 49.6746C29.6151 49.7085 29.4061 49.7398 29.1963 49.7684C29.4061 49.7398 29.6151 49.7085 29.8234 49.6746Z" fill="black"/>
<path d="M30.3241 49.5891C30.2245 49.6074 30.125 49.6242 30.0254 49.6414C30.125 49.6242 30.2245 49.6074 30.3241 49.5891Z" fill="black"/>
<path d="M28.6365 49.8379C28.3927 49.8654 28.1474 49.8898 27.9014 49.9104C28.1474 49.8898 28.3927 49.8654 28.6365 49.8379Z" fill="black"/>
<path d="M29.1176 49.7792C29.0005 49.7948 28.8826 49.8093 28.7651 49.823C28.8826 49.8093 29.0005 49.7948 29.1176 49.7792Z" fill="black"/>
<path d="M31.0057 49.4541C30.9179 49.4728 30.8298 49.4915 30.7417 49.5094C30.8298 49.4915 30.9179 49.4728 31.0057 49.4541Z" fill="black"/>
<path d="M32.6963 49.0345C32.6253 49.0548 32.5544 49.0738 32.4834 49.0937C32.5544 49.0738 32.6253 49.0548 32.6963 49.0345Z" fill="black"/>
<path d="M32.1851 49.1741C32.108 49.1943 32.0306 49.2149 31.9531 49.2343C32.0306 49.2149 32.108 49.1947 32.1851 49.1741Z" fill="black"/>
<path d="M31.516 49.3412C31.4343 49.3603 31.3519 49.3782 31.2695 49.3965C31.3519 49.3782 31.4343 49.3603 31.516 49.3412Z" fill="black"/>
<path d="M27.8932 49.9111C27.7616 49.9222 27.63 49.9321 27.498 49.9409C27.63 49.9321 27.7616 49.9222 27.8932 49.9111Z" fill="black"/>
<path d="M50.8135 25C50.8135 11.195 39.6076 0 25.7891 0C11.9706 0 0.764648 11.195 0.764648 25C0.764648 38.805 11.9706 50 25.7891 50C25.9361 50 26.0823 49.9969 26.2289 49.9943V30.5328H20.8526V24.2733H26.2289V19.6671C26.2289 14.325 29.4933 11.4174 34.2633 11.4174C36.5475 11.4174 38.5109 11.5875 39.0833 11.6634V17.2466H35.7941C33.1991 17.2466 32.6966 18.4788 32.6966 20.2866V24.2733H38.9015L38.0928 30.5328H32.6966V49.0341C43.1564 46.0384 50.8135 36.4113 50.8135 25Z" fill="#C2F970"/>
<path d="M27.4417 49.9443C27.1816 49.9611 26.9203 49.9745 26.6582 49.9832C26.9203 49.9745 27.1816 49.9611 27.4417 49.9443Z" fill="black"/>
<path d="M26.6445 49.984C26.5064 49.9886 26.368 49.992 26.2295 49.9943C26.368 49.992 26.5064 49.9886 26.6445 49.984Z" fill="black"/>
</g>
<defs>
<clipPath id="clip0">
<rect x="0.764648" width="50.0488" height="50" fill="white"/>
</clipPath>
</defs>
</svg>
