<svg width="2190" height="140" viewBox="0 0 2190 140" fill="none" xmlns="http://www.w3.org/2000/svg">
<path d="M0 83.0968C0 83.0968 0 86.5347 0 86.9358C0 97.2496 525.938 140.567 1347.03 139.994C2167.25 139.536 2189.58 97.4215 2189.58 86.9358C2189.58 86.5347 2189.58 83.0968 2189.58 83.0968H0Z" fill="#4C933E"/>
<g clip-path="url(#clip0)">
<path d="M923.693 83.1065C973.172 85.3253 1036.45 82.7515 1088.99 78.4026C1140.66 74.0538 1244.22 57.546 1309.02 46.7183C1474.97 18.1402 1601.74 7.22373 1730.69 2.60863C1782.36 0.744848 1837.31 -0.497678 1957.07 4.82743C2076.83 10.1525 2243.23 76.3226 2243.23 76.3226L2195.31 88.8753H0V61.9836C0 61.9836 157.634 33.0505 346.795 34.9143C432.618 35.5355 549.968 40.8606 640.17 54.7947C686.585 61.9836 754.455 70.9475 814.663 76.2726C874.213 81.8639 901.142 82.219 923.693 83.1065Z" fill="#4C933E"/>
</g>
<defs>
<clipPath id="clip0">
<rect width="2189.58" height="85.8065" transform="matrix(1 0 0 -1 0 85.8065)" fill="white"/>
</clipPath>
</defs>
</svg>
