<svg width="51" height="50" viewBox="0 0 51 50" fill="none" xmlns="http://www.w3.org/2000/svg">
<g clip-path="url(#clip0)">
<path d="M2.29222 47.8368H8.79865C9.69628 47.8368 10.4239 47.1099 10.4239 46.2131V17.8014C10.4239 16.9045 9.69628 16.1777 8.79865 16.1777H2.29222C1.3945 16.1777 0.666992 16.9045 0.666992 17.8014V46.2131C0.666992 47.1098 1.3945 47.8368 2.29222 47.8368Z" fill="#C2F970"/>
<path d="M2.29222 11.1827H8.79865C9.69628 11.1827 10.4239 10.4558 10.4239 9.55908V3.78697C10.4239 2.89021 9.69628 2.16333 8.79865 2.16333H2.29222C1.3945 2.16333 0.666992 2.89021 0.666992 3.78697V9.55908C0.666992 10.4558 1.3945 11.1827 2.29222 11.1827Z" fill="#C2F970"/>
<path d="M48.2679 19.4731C47.3536 18.2708 46.0055 17.2821 44.2229 16.5071C42.4403 15.7326 40.4726 15.3451 38.3198 15.3451C33.9495 15.3451 30.2464 17.0113 27.2104 20.3445C26.6063 21.0077 26.1671 20.8627 26.1671 19.9658V17.8014C26.1671 16.9045 25.4394 16.1777 24.5418 16.1777H18.7297C17.832 16.1777 17.1045 16.9045 17.1045 17.8014V46.2131C17.1045 47.1098 17.8321 47.8368 18.7297 47.8368H25.2361C26.1339 47.8368 26.8614 47.1098 26.8614 46.2131V36.3322C26.8614 32.2159 27.1102 29.3943 27.6078 27.8681C28.1052 26.3419 29.0257 25.1163 30.3682 24.1913C31.711 23.2662 33.227 22.8034 34.9171 22.8034C36.2364 22.8034 37.365 23.1273 38.3027 23.775C39.2403 24.4226 39.9174 25.3299 40.3341 26.498C40.7509 27.6659 40.9592 30.2386 40.9592 34.2164V46.213C40.9592 47.1098 41.6867 47.8367 42.5843 47.8367H49.0908C49.9884 47.8367 50.7159 47.1098 50.7159 46.213V30.1229C50.7159 27.2786 50.5364 25.0931 50.178 23.5669C49.8195 22.0406 49.1828 20.6761 48.2679 19.4731Z" fill="#C2F970"/>
</g>
<defs>
<clipPath id="clip0">
<rect x="0.666992" width="50.0488" height="50" fill="white"/>
</clipPath>
</defs>
</svg>
