<svg width="50" height="50" viewBox="0 0 50 50" fill="none" xmlns="http://www.w3.org/2000/svg">
<path d="M46.7949 7.14284H3.20518C1.43457 7.14284 0 5.54432 0 3.57148C0 1.59863 1.43457 0 3.20518 0H46.7949C48.5654 0 50 1.59852 50 3.57148C50 5.54443 48.5654 7.14284 46.7949 7.14284Z" fill="#4C933E"/>
<path d="M28.8462 28.5715H3.20518C1.43457 28.5715 0 26.9728 0 25C0 23.0272 1.43457 21.4285 3.20518 21.4285H28.8462C30.6167 21.4285 32.0514 23.027 32.0514 25C32.0514 26.973 30.6167 28.5715 28.8462 28.5715Z" fill="#4C933E"/>
<path d="M46.7953 28.5715H41.6671C39.8966 28.5715 38.4619 26.973 38.4619 25C38.4619 23.027 39.8965 21.4285 41.6671 21.4285H46.7953C48.5658 21.4285 50.0004 23.027 50.0004 25C50.0004 26.973 48.5658 28.5715 46.7953 28.5715Z" fill="#034732"/>
<path d="M46.7949 50H3.20518C1.43457 50 0 48.4014 0 46.4285C0 44.4557 1.43457 42.857 3.20518 42.857H46.7949C48.5654 42.857 50 44.4556 50 46.4285C50 48.4014 48.5654 50 46.7949 50Z" fill="#4C933E"/>
</svg>
