<svg width="1500" height="180" viewBox="0 0 1500 180" fill="none" xmlns="http://www.w3.org/2000/svg">
<rect y="40.1914" width="1500" height="93.3014" fill="#4C933E"/>
<ellipse cx="749.297" cy="89.7129" rx="91.5527" ry="89.7129" fill="white" fill-opacity="0.3"/>
<g filter="url(#filter0_i)">
<ellipse cx="748.564" cy="87.5598" rx="73.2422" ry="71.7703" fill="#034732"/>
</g>
<path d="M726.93 89.8655C725.394 89.8655 724.029 89.6735 722.834 89.2895C721.639 88.9055 720.519 88.2548 719.474 87.3375C718.898 86.8255 718.61 86.2601 718.61 85.6415C718.61 85.1508 718.791 84.7241 719.154 84.3615C719.517 83.9775 719.954 83.7855 720.466 83.7855C720.871 83.7855 721.234 83.9135 721.554 84.1695C722.407 84.8735 723.239 85.3855 724.05 85.7055C724.861 86.0255 725.821 86.1855 726.93 86.1855C728.125 86.1855 729.149 85.9188 730.002 85.3855C730.877 84.8521 731.314 84.1908 731.314 83.4015C731.314 82.4415 730.887 81.6948 730.034 81.1615C729.181 80.6068 727.826 80.1908 725.97 79.9135C721.298 79.2308 718.962 77.0548 718.962 73.3855C718.962 72.0415 719.314 70.8788 720.018 69.8975C720.722 68.8948 721.682 68.1375 722.898 67.6255C724.114 67.0921 725.469 66.8255 726.962 66.8255C728.306 66.8255 729.565 67.0281 730.738 67.4335C731.933 67.8388 732.925 68.3721 733.714 69.0335C734.333 69.5241 734.642 70.0895 734.642 70.7295C734.642 71.2201 734.461 71.6575 734.098 72.0415C733.735 72.4041 733.309 72.5855 732.818 72.5855C732.498 72.5855 732.21 72.4895 731.954 72.2975C731.399 71.8495 730.621 71.4441 729.618 71.0815C728.637 70.6975 727.751 70.5055 726.962 70.5055C725.618 70.5055 724.573 70.7615 723.826 71.2735C723.101 71.7641 722.738 72.4148 722.738 73.2255C722.738 74.1428 723.111 74.8361 723.858 75.3055C724.626 75.7748 725.821 76.1588 727.442 76.4575C729.277 76.7775 730.738 77.1935 731.826 77.7055C732.935 78.1961 733.767 78.8788 734.322 79.7535C734.877 80.6068 735.154 81.7481 735.154 83.1775C735.154 84.5215 734.77 85.7055 734.002 86.7295C733.255 87.7321 732.253 88.5108 730.994 89.0655C729.735 89.5988 728.381 89.8655 726.93 89.8655ZM759.432 78.3455C759.432 80.4575 758.962 82.3988 758.024 84.1695C757.085 85.9188 755.784 87.3055 754.12 88.3295C752.477 89.3535 750.621 89.8655 748.552 89.8655C746.482 89.8655 744.616 89.3535 742.952 88.3295C741.309 87.3055 740.018 85.9188 739.08 84.1695C738.162 82.3988 737.704 80.4575 737.704 78.3455C737.704 76.2335 738.162 74.3028 739.08 72.5535C740.018 70.7828 741.309 69.3855 742.952 68.3615C744.616 67.3375 746.482 66.8255 748.552 66.8255C750.621 66.8255 752.477 67.3375 754.12 68.3615C755.784 69.3855 757.085 70.7828 758.024 72.5535C758.962 74.3028 759.432 76.2335 759.432 78.3455ZM755.272 78.3455C755.272 76.9161 754.984 75.6255 754.408 74.4735C753.832 73.3001 753.032 72.3721 752.008 71.6895C750.984 71.0068 749.832 70.6655 748.552 70.6655C747.25 70.6655 746.088 71.0068 745.064 71.6895C744.061 72.3508 743.272 73.2681 742.696 74.4415C742.141 75.6148 741.864 76.9161 741.864 78.3455C741.864 79.7748 742.141 81.0761 742.696 82.2495C743.272 83.4228 744.061 84.3508 745.064 85.0335C746.088 85.6948 747.25 86.0255 748.552 86.0255C749.832 86.0255 750.984 85.6841 752.008 85.0015C753.032 84.3188 753.832 83.4015 754.408 82.2495C754.984 81.0761 755.272 79.7748 755.272 78.3455ZM770.305 89.8655C768.769 89.8655 767.404 89.6735 766.209 89.2895C765.014 88.9055 763.894 88.2548 762.849 87.3375C762.273 86.8255 761.985 86.2601 761.985 85.6415C761.985 85.1508 762.166 84.7241 762.529 84.3615C762.892 83.9775 763.329 83.7855 763.841 83.7855C764.246 83.7855 764.609 83.9135 764.929 84.1695C765.782 84.8735 766.614 85.3855 767.425 85.7055C768.236 86.0255 769.196 86.1855 770.305 86.1855C771.5 86.1855 772.524 85.9188 773.377 85.3855C774.252 84.8521 774.689 84.1908 774.689 83.4015C774.689 82.4415 774.262 81.6948 773.409 81.1615C772.556 80.6068 771.201 80.1908 769.345 79.9135C764.673 79.2308 762.337 77.0548 762.337 73.3855C762.337 72.0415 762.689 70.8788 763.393 69.8975C764.097 68.8948 765.057 68.1375 766.273 67.6255C767.489 67.0921 768.844 66.8255 770.337 66.8255C771.681 66.8255 772.94 67.0281 774.113 67.4335C775.308 67.8388 776.3 68.3721 777.089 69.0335C777.708 69.5241 778.017 70.0895 778.017 70.7295C778.017 71.2201 777.836 71.6575 777.473 72.0415C777.11 72.4041 776.684 72.5855 776.193 72.5855C775.873 72.5855 775.585 72.4895 775.329 72.2975C774.774 71.8495 773.996 71.4441 772.993 71.0815C772.012 70.6975 771.126 70.5055 770.337 70.5055C768.993 70.5055 767.948 70.7615 767.201 71.2735C766.476 71.7641 766.113 72.4148 766.113 73.2255C766.113 74.1428 766.486 74.8361 767.233 75.3055C768.001 75.7748 769.196 76.1588 770.817 76.4575C772.652 76.7775 774.113 77.1935 775.201 77.7055C776.31 78.1961 777.142 78.8788 777.697 79.7535C778.252 80.6068 778.529 81.7481 778.529 83.1775C778.529 84.5215 778.145 85.7055 777.377 86.7295C776.63 87.7321 775.628 88.5108 774.369 89.0655C773.11 89.5988 771.756 89.8655 770.305 89.8655Z" fill="#4C933E"/>
<defs>
<filter id="filter0_i" x="675.322" y="15.7895" width="146.484" height="147.541" filterUnits="userSpaceOnUse" color-interpolation-filters="sRGB">
<feFlood flood-opacity="0" result="BackgroundImageFix"/>
<feBlend mode="normal" in="SourceGraphic" in2="BackgroundImageFix" result="shape"/>
<feColorMatrix in="SourceAlpha" type="matrix" values="0 0 0 0 0 0 0 0 0 0 0 0 0 0 0 0 0 0 127 0" result="hardAlpha"/>
<feOffset dy="4"/>
<feGaussianBlur stdDeviation="2"/>
<feComposite in2="hardAlpha" operator="arithmetic" k2="-1" k3="1"/>
<feColorMatrix type="matrix" values="0 0 0 0 0 0 0 0 0 0 0 0 0 0 0 0 0 0 0.25 0"/>
<feBlend mode="normal" in2="shape" result="effect1_innerShadow"/>
</filter>
</defs>
</svg>
