<svg width="1024" height="65" viewBox="0 0 1024 65" fill="none" xmlns="http://www.w3.org/2000/svg">
<path d="M-84 32.5C-84 32.5 -84 34.4636 -84 34.6926C-84 40.5833 184.784 65.324 604.409 64.9968C1023.59 64.735 1035 40.6815 1035 34.6926C1035 34.4636 1035 32.5 1035 32.5H-84Z" fill="#4C933E"/>
<g clip-path="url(#clip0)">
<path d="M388.106 30.3875C413.395 31.2 445.735 30.2575 472.591 28.665C498.999 27.0725 551.928 21.0275 585.05 17.0625C669.87 6.5975 734.66 2.6 800.569 0.91C826.978 0.227501 855.065 -0.227501 916.274 1.7225C977.483 3.6725 1035.11 10.0425 1035.11 10.0425V32.5H-84V22.6525C-84 22.6525 -3.43201 12.0575 93.2496 12.74C137.114 12.9675 197.093 14.9175 243.196 20.02C266.918 22.6525 301.607 25.935 332.38 27.885C362.817 29.9325 376.58 30.0625 388.106 30.3875Z" fill="#4C933E"/>
</g>
<defs>
<clipPath id="clip0">
<rect width="1119" height="32.5" transform="matrix(1 0 0 -1 -84 32.5)" fill="white"/>
</clipPath>
</defs>
</svg>
