<svg width="51" height="50" viewBox="0 0 51 50" fill="none" xmlns="http://www.w3.org/2000/svg">
<g clip-path="url(#clip0)">
<path d="M50.9102 9.49688C49.049 10.3125 47.0658 10.8531 44.9981 11.1156C47.1252 9.84687 48.7487 7.85312 49.5119 5.45C47.5287 6.63125 45.3391 7.46563 43.0056 7.93125C41.1225 5.92813 38.4386 4.6875 35.5108 4.6875C29.8302 4.6875 25.257 9.29375 25.257 14.9406C25.257 15.7531 25.3258 16.5344 25.4947 17.2781C16.9645 16.8625 9.41655 12.7781 4.34598 6.55625C3.46074 8.09063 2.94148 9.84688 2.94148 11.7375C2.94148 15.2875 4.77139 18.4344 7.49905 20.2562C5.85057 20.225 4.23337 19.7469 2.86328 18.9938C2.86328 19.025 2.86328 19.0656 2.86328 19.1062C2.86328 24.0875 6.41988 28.225 11.0838 29.1781C10.2486 29.4062 9.33835 29.5156 8.39368 29.5156C7.73679 29.5156 7.07364 29.4781 6.45116 29.3406C7.78058 33.4 11.553 36.3844 16.0386 36.4812C12.5477 39.2094 8.11528 40.8531 3.31685 40.8531C2.4754 40.8531 1.66837 40.8156 0.861328 40.7125C5.40639 43.6406 10.7929 45.3125 16.6017 45.3125C35.4826 45.3125 45.8052 29.6875 45.8052 16.1437C45.8052 15.6906 45.7895 15.2531 45.7676 14.8188C47.804 13.375 49.515 11.5719 50.9102 9.49688Z" fill="#C2F970"/>
</g>
<defs>
<clipPath id="clip0">
<rect x="0.861328" width="50.0488" height="50" fill="white"/>
</clipPath>
</defs>
</svg>
